<!DOCTYPE svg PUBLIC "-//W3C//DTD SVG 1.1//EN" "http://www.w3.org/Graphics/SVG/1.1/DTD/svg11.dtd">
<!-- Uploaded to: SVG Repo, www.svgrepo.com, Transformed by: SVG Repo Mixer Tools -->
<svg width="800px" height="800px" viewBox="0 0 24 24" xmlns="http://www.w3.org/2000/svg" fill="#F6BCC9" stroke="#F6BCC9">
<g id="SVGRepo_bgCarrier" stroke-width="0"/>
<g id="SVGRepo_tracerCarrier" stroke-linecap="round" stroke-linejoin="round"/>
<g id="SVGRepo_iconCarrier"> <defs> <style>.cls-1,.cls-2{fill:none;stroke:;stroke-linecap:round;stroke-linejoin:round;stroke-width:1.5px;}.cls-2{fill-rule:evenodd;}</style> </defs> <g id="ic-shopping-parfume"> <path class="cls-1" d="M10,11.5h0a5,5,0,0,1,5,5v5a0,0,0,0,1,0,0H5a0,0,0,0,1,0,0v-5A5,5,0,0,1,10,11.5Z"/> <path class="cls-2" d="M13,12.5v-2a2,2,0,0,0-2-2H9a2,2,0,0,0-2,2v2"/> <line class="cls-1" x1="10" y1="2.5" x2="10" y2="8.5"/> <line class="cls-1" x1="10" y1="4.5" x2="13" y2="4.5"/> <rect class="cls-1" x="13" y="2.5" width="6" height="4" rx="2"/> </g> </g>
</svg>